<?xml version="1.0" ?>
<svg xmlns="http://www.w3.org/2000/svg" xmlns:ev="http://www.w3.org/2001/xml-events" xmlns:xlink="http://www.w3.org/1999/xlink" baseProfile="full" height="32" version="1.1" viewBox="0 0 32 32" width="32">
	<defs/>
	<path d="M 19.0,37.0 Q 19.0,35.0 18.0,33.5 Q 17.0,32.0 17.0,30.0 Q 16.0,29.0 14.0,26.5 Q 12.0,24.0 10.0,21.0 Q 8.0,19.0 7.0,17.5 Q 6.0,16.0 6.0,15.0 Q 4.0,13.0 3.5,11.5 Q 3.0,10.0 3.0,8.0 Q 3.0,5.0 5.0,2.0 Q 8.0,0.0 11.0,0.0 Q 14.0,0.0 16.0,3.0 Q 17.0,3.0 18.0,4.5 Q 19.0,6.0 19.0,8.0 Q 20.0,4.0 22.5,2.0 Q 25.0,0.0 27.0,0.0 Q 29.0,0.0 30.5,0.5 Q 32.0,1.0 33.0,2.0 Q 35.0,5.0 35.0,8.0 Q 35.0,10.0 34.0,13.0 Q 33.0,14.0 31.5,16.0 Q 30.0,18.0 29.0,20.0 Q 26.0,23.0 24.5,25.5 Q 23.0,28.0 22.0,30.0 Q 21.0,32.0 20.5,33.5 Q 20.0,35.0 19.0,37.0" fill="none" stroke="#000000" stroke-width="1"/>
	<path d="M 34.0,38.0 L 8.0,38.0 L 8.0,37.0 Q 11.0,36.0 12.5,35.5 Q 14.0,35.0 15.0,35.0 Q 16.0,34.0 17.0,33.0 Q 18.0,32.0 19.0,30.0 Q 21.0,27.0 21.0,24.0 Q 21.0,23.0 21.0,23.0 Q 21.0,23.0 21.0,22.0 Q 19.0,26.0 16.0,28.0 Q 15.0,29.0 13.5,29.5 Q 12.0,30.0 11.0,30.0 Q 9.0,30.0 7.5,29.0 Q 6.0,28.0 4.0,27.0 Q 2.0,24.0 2.0,21.0 Q 2.0,17.0 4.0,15.0 Q 6.0,12.0 9.0,12.0 Q 10.0,12.0 11.5,12.5 Q 13.0,13.0 14.0,14.0 Q 14.0,13.0 13.5,12.0 Q 13.0,11.0 13.0,11.0 Q 13.0,10.0 12.5,9.5 Q 12.0,9.0 12.0,8.0 Q 12.0,5.0 15.0,2.0 Q 16.0,1.0 17.5,0.5 Q 19.0,0.0 21.0,0.0 Q 25.0,0.0 27.0,2.0 Q 30.0,5.0 30.0,8.0 Q 30.0,11.0 27.0,14.0 Q 30.0,13.0 31.0,13.0 Q 31.0,12.0 31.5,12.0 Q 32.0,12.0 32.0,12.0 Q 34.0,12.0 35.5,12.5 Q 37.0,13.0 38.0,15.0 Q 40.0,17.0 40.0,21.0 Q 40.0,24.0 38.0,27.0 Q 35.0,29.0 32.0,29.0 Q 30.0,29.0 28.0,28.5 Q 26.0,28.0 24.0,26.0 Q 23.0,25.0 22.5,24.5 Q 22.0,24.0 21.0,22.0 Q 21.0,25.0 21.5,27.0 Q 22.0,29.0 23.0,30.0 Q 24.0,31.0 25.0,32.5 Q 26.0,34.0 27.0,35.0 Q 29.0,36.0 34.0,37.0 L 34.0,38.0" fill="none" stroke="#000000" stroke-width="1"/>
	<path d="M 16.0,0.0 Q 18.0,2.0 19.5,4.5 Q 21.0,7.0 23.0,10.0 Q 25.0,13.0 27.0,15.5 Q 29.0,18.0 31.0,19.0 Q 29.0,20.0 27.5,22.5 Q 26.0,25.0 23.0,29.0 Q 21.0,32.0 19.5,34.5 Q 18.0,37.0 16.0,39.0 Q 16.0,38.0 15.5,37.0 Q 15.0,36.0 14.0,35.0 Q 13.0,33.0 11.5,31.0 Q 10.0,29.0 8.0,27.0 Q 8.0,26.0 6.5,24.0 Q 5.0,22.0 2.0,19.0 Q 4.0,17.0 6.0,14.5 Q 8.0,12.0 10.0,9.0 Q 12.0,7.0 13.5,4.5 Q 15.0,2.0 16.0,0.0" fill="none" stroke="#000000" stroke-width="1"/>
	<path d="M 17.0,0.0 Q 17.0,1.0 18.0,2.5 Q 19.0,4.0 20.0,6.0 Q 20.0,7.0 21.5,8.5 Q 23.0,10.0 26.0,12.0 Q 30.0,16.0 31.0,18.0 Q 32.0,20.0 32.0,22.0 Q 32.0,25.0 30.0,27.0 Q 28.0,29.0 25.0,29.0 Q 20.0,29.0 17.0,23.0 Q 17.0,28.0 19.0,31.0 Q 20.0,33.0 22.5,35.0 Q 25.0,37.0 29.0,37.0 L 29.0,38.0 L 5.0,38.0 L 5.0,37.0 Q 9.0,37.0 11.0,35.0 M 17.0,23.0 Q 15.0,26.0 13.0,27.5 Q 11.0,29.0 9.0,29.0 Q 6.0,29.0 4.0,27.0 Q 2.0,25.0 2.0,23.0 Q 2.0,20.0 3.0,18.0 Q 4.0,17.0 5.0,15.5 Q 6.0,14.0 8.0,13.0 Q 10.0,11.0 11.5,9.5 Q 13.0,8.0 15.0,6.0 Q 16.0,3.0 17.0,0.0" fill="none" stroke="#000000" stroke-width="1"/>
</svg>
